<svg aria-hidden="true" style="position: absolute; width: 0; height: 0; overflow: hidden;" version="1.1" xmlns="http://www.w3.org/2000/svg" xmlns:xlink="http://www.w3.org/1999/xlink">
<defs>
<symbol id="icon-arr" viewBox="0 0 122 32">
<path d="M8.819 18.373c0.042-1.211 3.465-1.102 3.465-1.102l24.882-0.315 1.417 0.997 2.047 0.052 1.417-1.155 4.252 1.050 8.294-0.052 29.449-0.105 4.147-3.097c0 0 0.954-0.621 1.26-0.315s-0.315 1.26-0.315 1.26l-3.307 2.205h5.512l3.937-3.465 9.291-0.997-6.142 1.89 0.157 1.155c0 0 2.653 0.34 3.36 1.312 0.175 0.241 0.194 0.63 0.052 0.892-0.594 1.105-3.255 1.89-3.255 1.89l-0.21 1.102 6.352 1.732-9.449-0.892-3.517-3.097-5.459-0.262 2.94 2.31c0 0 0.327 0.858 0.052 1.102-0.318 0.283-1.26-0.21-1.26-0.21l-3.78-3.045-38.95-0.052-3.465 0.84-1.365-1.050-2.152-0.105-1.102 1.102-25.774-0.472c0 0-2.817-0.105-2.782-1.102z"></path>
</symbol>
<symbol id="icon-orel" viewBox="0 0 107 32">
<path d="M6.326 20.595c0.014-0.404 1.155-0.367 1.155-0.367l5.992-0.22 0.472 0.332 0.682 0.017 0.472-0.385 1.417 0.35c4.194-0.029 4.611-0.015 8.805-0.029l1.141-1.343c0 0 0.318-0.207 0.42-0.105s-0.105 0.42-0.105 0.42l-0.861 1.046 1.561-0.115 1.036-1.489 2.406-0.436-1.846 1.288c0.398 0.148 1.215 0.278 1.165 0.892 0.076 0.594-1.13 1.225-1.13 1.225l1.789 1.024-2.148-0.297-1.218-1.596-1.405-0.076 0.842 1.104c0 0 0.109 0.286 0.017 0.367-0.106 0.094-0.42-0.070-0.42-0.070l-1.122-1.349-9.208-0.041-1.155 0.28-0.455-0.35-0.717-0.035-0.367 0.367-6.289-0.042c0 0-0.939-0.035-0.927-0.367z"></path>
<path d="M103.465 20.622c-0.014-0.404-1.155-0.367-1.155-0.367l-5.992-0.22-0.472 0.332-0.682 0.017-0.472-0.385-1.417 0.35c-4.194-0.029-4.611-0.015-8.805-0.029l-1.141-1.343c0 0-0.318-0.207-0.42-0.105s0.105 0.42 0.105 0.42l0.861 1.046-1.561-0.115-1.036-1.489-2.406-0.436 1.846 1.288c-0.398 0.148-1.215 0.278-1.165 0.892-0.076 0.594 1.13 1.225 1.13 1.225l-1.789 1.024 2.148-0.297 1.218-1.596 1.405-0.076-0.842 1.104c0 0-0.109 0.286-0.017 0.367 0.106 0.094 0.42-0.070 0.42-0.070l1.122-1.349 9.208-0.041 1.155 0.28 0.455-0.35 0.717-0.035 0.367 0.367 6.289-0.042c0 0 0.939-0.035 0.927-0.367z"></path>
<path d="M47.348 26.845l4.57-4.075-0.081-0.242-2.521-0.829-2.061-1.059-1.968-1.692-2.682-2.878-1.243-1.715-0.035-0.265 0.414 0.023 0.023-0.368-0.334-0.092-2.268-2.648 1.347 0.334-1.922-3.845 1.174 0.656-2.394-5.457 2.348 2.199c0 0 3.949 2.82 4.006 2.82s2.176 1.692 2.222 1.761c0.046 0.069 2.429 1.646 2.429 1.646l1.439 0.829 0.127-0.138-0.334-0.334-0.265-0.725v-0.886l0.334-0.633 0.691-0.288 0.207 0.035-0.449 0.311-0.426 0.449-0.081 0.679 0.737 1.312 1.52 2.084 1.335 1.404 1.968 1.358 0.909 0.012 0.069-1.635-0.058-0.84-0.15-0.046-0.069-0.599 0.046-1.347c0 0 0.644-0.582 0.817-0.967 0.11-0.244-0.152-0.796 0.115-0.794s0.004 0.546 0.104 0.794c0.167 0.415 0.794 1.082 0.794 1.082l0.012 1.404 0.023 0.207-0.207 0.011 0.035 0.426-0.15 0.011 0.035 2.325 0.783-0.023 1.52-0.679 2.371-2.544 1.025-1.347 0.599-0.817 0.345-0.656 0.023-0.691-0.472-0.518-0.645-0.414h0.541l0.449 0.345 0.207 0.368 0.104 0.253 0.069 0.564-0.299 0.829-0.495 0.495 0.069 0.368 5.652-3.787 2.636-1.819 4.444-3.902-2.521 5.387 1.243-0.506-1.945 3.718 1.174-0.081-2.394 2.625 0.403 0.311-1.543 2.36-3.916 3.864-1.758 1.083-1.994 0.724-1.368 0.472 4.428 4.176-0.847 0.13-2.32 0.651-2.515 0.326-0.806 0.497-0.92 1.612-0.301 0.773-0.122 1.229-0.391 0.041v-1.213l0.098-1.18-0.163-0.635-0.594-0.594-0.073 3.622-0.252-0.024 0.049-1.954c0 0-0.111-0.085-0.138-0.147-0.046-0.105-0.076-0.24-0.024-0.342 0.039-0.077 0.22-0.138 0.22-0.138v-1.058l-0.309-0.228-0.285 0.179v0.977c0 0 0.127 0.117 0.155 0.195 0.061 0.171 0.082 0.379 0.008 0.545-0.023 0.053-0.13 0.114-0.13 0.114l0.016 1.88h-0.212l0.008-3.663-0.578 0.505-0.22 0.545 0.114 2.702-0.407 0.081 0.008-0.513-0.529-2.076-0.619-0.912-0.537-0.562-1.693-0.407"></path>
</symbol>
<symbol id="icon-close" viewBox="0 0 32 32">
<path d="M32 3.223l-3.223-3.223-12.777 12.777-12.777-12.777-3.223 3.223 12.777 12.777-12.777 12.777 3.223 3.223 12.777-12.777 12.777 12.777 3.223-3.223-12.777-12.777 12.777-12.777z"></path>
</symbol>
<symbol id="icon-youtube" viewBox="0 0 36 32">
<path d="M14.507 22.857l9.411-6.857-9.411-6.857v13.714zM35.469 4.96c0.236 1.074 0.399 2.514 0.508 4.343 0.127 1.829 0.181 3.406 0.181 4.777l0.109 1.92c0 5.006-0.29 8.686-0.798 11.040-0.453 2.057-1.505 3.383-3.137 3.954-0.852 0.297-2.412 0.503-4.805 0.64-2.357 0.16-4.515 0.229-6.51 0.229l-2.883 0.137c-7.598 0-12.331-0.366-14.198-1.006-1.632-0.571-2.684-1.897-3.137-3.954-0.236-1.074-0.399-2.514-0.508-4.343-0.127-1.829-0.181-3.406-0.181-4.777l-0.109-1.92c0-5.006 0.29-8.686 0.798-11.040 0.453-2.057 1.505-3.383 3.137-3.954 0.852-0.297 2.412-0.503 4.805-0.64 2.357-0.16 4.515-0.229 6.51-0.229l2.883-0.137c7.598 0 12.331 0.366 14.198 1.006 1.632 0.571 2.684 1.897 3.137 3.954z"></path>
</symbol>
<symbol id="icon-twitter" viewBox="0 0 36 32">
<path d="M35.376 3.765c-1.269 0.659-2.638 1.092-4.055 1.299 1.451-0.998 2.572-2.579 3.099-4.48-1.368 0.941-2.885 1.6-4.484 1.976-1.302-1.619-3.132-2.56-5.209-2.56-3.874 0-7.039 3.614-7.039 8.075 0 0.64 0.066 1.261 0.181 1.845-5.868-0.339-11.094-3.558-14.573-8.433-0.61 1.186-0.956 2.579-0.956 4.047 0 2.805 1.236 5.289 3.149 6.701-1.17 0-2.258-0.377-3.215-0.941v0.057c0 3.915 2.44 7.191 5.671 7.925-1.037 0.324-2.126 0.369-3.182 0.132 0.448 1.605 1.325 3.009 2.507 4.015s2.612 1.564 4.087 1.594c-2.5 2.26-5.598 3.481-8.786 3.464-0.56 0-1.121-0.038-1.681-0.113 3.132 2.297 6.858 3.633 10.847 3.633 12.99 0 20.128-12.311 20.128-22.984 0-0.358 0-0.696-0.016-1.054 1.385-1.129 2.572-2.56 3.528-4.198z"></path>
</symbol>
<symbol id="icon-inst" viewBox="0 0 32 32">
<path d="M9.28 0h13.44c5.12 0 9.28 4.16 9.28 9.28v13.44c0 2.461-0.978 4.822-2.718 6.562s-4.101 2.718-6.562 2.718h-13.44c-5.12 0-9.28-4.16-9.28-9.28v-13.44c0-2.461 0.978-4.822 2.718-6.562s4.101-2.718 6.562-2.718zM8.96 3.2c-1.528 0-2.993 0.607-4.073 1.687s-1.687 2.545-1.687 4.073v14.080c0 3.184 2.576 5.76 5.76 5.76h14.080c1.528 0 2.993-0.607 4.073-1.687s1.687-2.545 1.687-4.073v-14.080c0-3.184-2.576-5.76-5.76-5.76h-14.080zM24.4 5.6c0.53 0 1.039 0.211 1.414 0.586s0.586 0.884 0.586 1.414-0.211 1.039-0.586 1.414c-0.375 0.375-0.884 0.586-1.414 0.586s-1.039-0.211-1.414-0.586c-0.375-0.375-0.586-0.884-0.586-1.414s0.211-1.039 0.586-1.414c0.375-0.375 0.884-0.586 1.414-0.586zM16 8c2.122 0 4.157 0.843 5.657 2.343s2.343 3.535 2.343 5.657-0.843 4.157-2.343 5.657c-1.5 1.5-3.535 2.343-5.657 2.343s-4.157-0.843-5.657-2.343c-1.5-1.5-2.343-3.535-2.343-5.657s0.843-4.157 2.343-5.657c1.5-1.5 3.535-2.343 5.657-2.343zM16 11.2c-1.273 0-2.494 0.506-3.394 1.406s-1.406 2.121-1.406 3.394c0 1.273 0.506 2.494 1.406 3.394s2.121 1.406 3.394 1.406c1.273 0 2.494-0.506 3.394-1.406s1.406-2.121 1.406-3.394c0-1.273-0.506-2.494-1.406-3.394s-2.121-1.406-3.394-1.406z"></path>
</symbol>
</defs>
</svg>
